{
 "cells": [
  {
   "attachments": {},
   "cell_type": "markdown",
   "metadata": {},
   "source": [
    "### Fromat of the generator\n",
    "1. English Bible verse + hebrew text\n",
    "2. List of videos to loop\n",
    "3. "
   ]
  },
  {
   "cell_type": "code",
   "execution_count": 1,
   "metadata": {},
   "outputs": [
    {
     "name": "stdout",
     "output_type": "stream",
     "text": [
      " > Using model: vits\n",
      " > Setting up Audio Processor...\n",
      " | > sample_rate:22050\n",
      " | > resample:False\n",
      " | > num_mels:80\n",
      " | > log_func:np.log10\n",
      " | > min_level_db:0\n",
      " | > frame_shift_ms:None\n",
      " | > frame_length_ms:None\n",
      " | > ref_level_db:None\n",
      " | > fft_size:1024\n",
      " | > power:None\n",
      " | > preemphasis:0.0\n",
      " | > griffin_lim_iters:None\n",
      " | > signal_norm:None\n",
      " | > symmetric_norm:None\n",
      " | > mel_fmin:0\n",
      " | > mel_fmax:None\n",
      " | > pitch_fmin:None\n",
      " | > pitch_fmax:None\n",
      " | > spec_gain:20.0\n",
      " | > stft_pad_mode:reflect\n",
      " | > max_norm:1.0\n",
      " | > clip_norm:True\n",
      " | > do_trim_silence:False\n",
      " | > trim_db:60\n",
      " | > do_sound_norm:False\n",
      " | > do_amp_to_db_linear:True\n",
      " | > do_amp_to_db_mel:True\n",
      " | > do_rms_norm:False\n",
      " | > db_level:None\n",
      " | > stats_path:None\n",
      " | > base:10\n",
      " | > hop_length:256\n",
      " | > win_length:1024\n",
      " > initialization of speaker-embedding layers.\n"
     ]
    }
   ],
   "source": [
    "import sys\n",
    "sys.path.append('../') # so that we can import packages from parent folder\n",
    "\n",
    "from src.tts import TextToSpeech\n",
    "from IPython.display import Audio\n",
    "import matplotlib.pyplot as plt\n",
    "%matplotlib inline\n",
    "\n",
    "from src.video_composition.composer import VideoComposition\n",
    "\n",
    "from src.video_composition.combo.tts_component import TTSComponent\n",
    "from src.video_composition.audio.audio_file_component import AudioFileComponent\n",
    "from src.video_composition.video.static_background_image_component import StaticBackgroundImageComponent\n",
    "from src.video_composition.video.looping_mp4 import LoopingMP4\n",
    "\n",
    "import json\n",
    "\n",
    "#4 seconds"
   ]
  },
  {
   "cell_type": "code",
   "execution_count": 2,
   "metadata": {},
   "outputs": [
    {
     "name": "stdout",
     "output_type": "stream",
     "text": [
      "Should you not fear me? declares the Lord. Should you not tremble in my presence? I made the sand a boundary for the sea, an everlasting barrier it cannot cross. The waves may roll, but they cannot prevail; they may roar, but they cannot cross it.\n",
      "\n",
      "הַאֹותִ֨י לֹא־תִירָ֜אוּ נְאֻם־יְהֹוָ֗ה אִ֤ם מִפָּנַי֙ לֹ֣א תָחִ֔ילוּ אֲשֶׁר־שַׂ֤מְתִּי חֹול֙ גְּב֣וּל לַיָּ֔ם חָק־עֹולָ֖ם וְלֹ֣א יַעַבְרֶ֑נְהוּ וַיִּֽתְגָּעֲשׁוּ֙ וְלֹ֣א יוּכָ֔לוּ וְהָמ֥וּ גַלָּ֖יו וְלֹ֥א יַעַבְרֻֽנְהוּ\n",
      "\n"
     ]
    }
   ],
   "source": [
    "verse = 'Should you not fear me? declares the Lord. Should you not tremble in my presence? I made the sand a boundary for the sea, an everlasting barrier it cannot cross. The waves may roll, but they cannot prevail; they may roar, but they cannot cross it.'\n",
    "hebrew = '''\n",
    "הַאֹותִ֨י לֹא־תִירָ֜אוּ נְאֻם־יְהֹוָ֗ה אִ֤ם מִפָּנַי֙ לֹ֣א תָחִ֔ילוּ אֲשֶׁר־שַׂ֤מְתִּי חֹול֙ גְּב֣וּל לַיָּ֔ם חָק־עֹולָ֖ם וְלֹ֣א יַעַבְרֶ֑נְהוּ וַיִּֽתְגָּעֲשׁוּ֙ וְלֹ֣א יוּכָ֔לוּ וְהָמ֥וּ גַלָּ֖יו וְלֹ֥א יַעַבְרֻֽנְהוּ\n",
    "'''\n",
    "location = 'Jeremiah 5:22'\n",
    "\n",
    "# a list of pairs of filenames and percentages\n",
    "transitionTimestamps = [('light.mp4', '40'), ('waves.mp4', '60')]\n",
    "\n",
    "print(verse)\n",
    "print(hebrew)"
   ]
  },
  {
   "cell_type": "code",
   "execution_count": 4,
   "metadata": {},
   "outputs": [
    {
     "name": "stdout",
     "output_type": "stream",
     "text": [
      " > Text splitted to sentences.\n",
      "['Should you not fear me?']\n",
      " > Processing time: 0.9262912273406982\n",
      " > Real-time factor: 0.5425181035609433\n",
      " > Text splitted to sentences.\n",
      "['declares the Lord.']\n",
      " > Processing time: 0.41960906982421875\n",
      " > Real-time factor: 0.22865707763997686\n",
      " > Text splitted to sentences.\n",
      "['Should you not tremble in my presence?']\n",
      " > Processing time: 0.5824010372161865\n",
      " > Real-time factor: 0.20141064728069186\n",
      " > Text splitted to sentences.\n",
      "['I made the sand a boundary for the sea, an everlasting barrier it cannot cross.']\n",
      " > Processing time: 1.5642690658569336\n",
      " > Real-time factor: 0.30409906988067237\n",
      " > Text splitted to sentences.\n",
      "['The waves may roll, but they cannot prevail; they may roar, but they cannot cross it.']\n",
      " > Processing time: 1.4155290126800537\n",
      " > Real-time factor: 0.2593771999201833\n",
      " > Text splitted to sentences.\n",
      "['Jeremiah 5:22']\n",
      " > Processing time: 0.4903092384338379\n",
      " > Real-time factor: 0.20009103322968103\n",
      "Component: 0 - 584\n",
      "Duration: 19.485895691609976\n"
     ]
    },
    {
     "name": "stderr",
     "output_type": "stream",
     "text": [
      "ffmpeg version 6.0 Copyright (c) 2000-2023 the FFmpeg developers\n",
      "  built with Apple clang version 14.0.3 (clang-1403.0.22.14.1)\n",
      "  configuration: --prefix=/opt/homebrew/Cellar/ffmpeg/6.0_1 --enable-shared --enable-pthreads --enable-version3 --cc=clang --host-cflags= --host-ldflags= --enable-ffplay --enable-gnutls --enable-gpl --enable-libaom --enable-libaribb24 --enable-libbluray --enable-libdav1d --enable-libmp3lame --enable-libopus --enable-librav1e --enable-librist --enable-librubberband --enable-libsnappy --enable-libsrt --enable-libsvtav1 --enable-libtesseract --enable-libtheora --enable-libvidstab --enable-libvmaf --enable-libvorbis --enable-libvpx --enable-libwebp --enable-libx264 --enable-libx265 --enable-libxml2 --enable-libxvid --enable-lzma --enable-libfontconfig --enable-libfreetype --enable-frei0r --enable-libass --enable-libopencore-amrnb --enable-libopencore-amrwb --enable-libopenjpeg --enable-libspeex --enable-libsoxr --enable-libzmq --enable-libzimg --disable-libjack --disable-indev=jack --enable-videotoolbox --enable-audiotoolbox --enable-neon\n",
      "  libavutil      58.  2.100 / 58.  2.100\n",
      "  libavcodec     60.  3.100 / 60.  3.100\n",
      "  libavformat    60.  3.100 / 60.  3.100\n",
      "  libavdevice    60.  1.100 / 60.  1.100\n",
      "  libavfilter     9.  3.100 /  9.  3.100\n",
      "  libswscale      7.  1.100 /  7.  1.100\n",
      "  libswresample   4. 10.100 /  4. 10.100\n",
      "  libpostproc    57.  1.100 / 57.  1.100\n",
      "Input #0, mov,mp4,m4a,3gp,3g2,mj2, from './videos/clouds.mp4':\n",
      "  Metadata:\n",
      "    major_brand     : isom\n",
      "    minor_version   : 512\n",
      "    compatible_brands: isomiso2avc1mp41\n",
      "    encoder         : Lavf58.29.100\n",
      "  Duration: 00:00:04.00, start: 0.000000, bitrate: 3124 kb/s\n",
      "  Stream #0:0[0x1](und): Video: h264 (High) (avc1 / 0x31637661), yuv420p(progressive), 1024x640, 3120 kb/s, 24 fps, 24 tbr, 12288 tbn (default)\n",
      "    Metadata:\n",
      "      handler_name    : VideoHandler\n",
      "      vendor_id       : [0][0][0][0]\n",
      "Stream mapping:\n",
      "  Stream #0:0 -> #0:0 (h264 (native) -> rawvideo (native))\n",
      "Press [q] to stop, [?] for help\n",
      "[swscaler @ 0x120a50000] [swscaler @ 0x120a60000] No accelerated colorspace conversion found from yuv420p to bgr24.\n",
      "[swscaler @ 0x120a50000] [swscaler @ 0x110048000] No accelerated colorspace conversion found from yuv420p to bgr24.\n",
      "[swscaler @ 0x120a50000] [swscaler @ 0x1104f0000] No accelerated colorspace conversion found from yuv420p to bgr24.\n",
      "[swscaler @ 0x120a50000] [swscaler @ 0x110500000] No accelerated colorspace conversion found from yuv420p to bgr24.\n",
      "[swscaler @ 0x120a50000] [swscaler @ 0x110510000] No accelerated colorspace conversion found from yuv420p to bgr24.\n",
      "[swscaler @ 0x120a50000] [swscaler @ 0x110520000] No accelerated colorspace conversion found from yuv420p to bgr24.\n",
      "[swscaler @ 0x120a50000] [swscaler @ 0x110530000] No accelerated colorspace conversion found from yuv420p to bgr24.\n",
      "[swscaler @ 0x120a50000] [swscaler @ 0x110540000] No accelerated colorspace conversion found from yuv420p to bgr24.\n",
      "[swscaler @ 0x120a50000] [swscaler @ 0x110550000] No accelerated colorspace conversion found from yuv420p to bgr24.\n",
      "Output #0, avi, to '/var/folders/7k/52l4j6s906q9s88m_c95kdkw0000gn/T/tmp3bqz2_ap.avi':\n",
      "  Metadata:\n",
      "    major_brand     : isom\n",
      "    minor_version   : 512\n",
      "    compatible_brands: isomiso2avc1mp41\n",
      "    ISFT            : Lavf60.3.100\n",
      "  Stream #0:0(und): Video: rawvideo, bgr24(pc, gbr/unknown/unknown, progressive), 1024x640, q=2-31, 377487 kb/s, 24 fps, 24 tbn (default)\n",
      "    Metadata:\n",
      "      handler_name    : VideoHandler\n",
      "      vendor_id       : [0][0][0][0]\n",
      "      encoder         : Lavc60.3.100 rawvideo\n",
      "frame=   96 fps=0.0 q=-0.0 Lsize=  184328kB time=00:00:03.95 bitrate=381477.1kbits/s speed=11.8x    \n",
      "video:184320kB audio:0kB subtitle:0kB other streams:0kB global headers:0kB muxing overhead: 0.004233%\n"
     ]
    },
    {
     "name": "stdout",
     "output_type": "stream",
     "text": [
      "Component: 0 - 194\n",
      "Duration: 6.495298563869992\n"
     ]
    },
    {
     "name": "stderr",
     "output_type": "stream",
     "text": [
      "ffmpeg version 6.0 Copyright (c) 2000-2023 the FFmpeg developers\n",
      "  built with Apple clang version 14.0.3 (clang-1403.0.22.14.1)\n",
      "  configuration: --prefix=/opt/homebrew/Cellar/ffmpeg/6.0_1 --enable-shared --enable-pthreads --enable-version3 --cc=clang --host-cflags= --host-ldflags= --enable-ffplay --enable-gnutls --enable-gpl --enable-libaom --enable-libaribb24 --enable-libbluray --enable-libdav1d --enable-libmp3lame --enable-libopus --enable-librav1e --enable-librist --enable-librubberband --enable-libsnappy --enable-libsrt --enable-libsvtav1 --enable-libtesseract --enable-libtheora --enable-libvidstab --enable-libvmaf --enable-libvorbis --enable-libvpx --enable-libwebp --enable-libx264 --enable-libx265 --enable-libxml2 --enable-libxvid --enable-lzma --enable-libfontconfig --enable-libfreetype --enable-frei0r --enable-libass --enable-libopencore-amrnb --enable-libopencore-amrwb --enable-libopenjpeg --enable-libspeex --enable-libsoxr --enable-libzmq --enable-libzimg --disable-libjack --disable-indev=jack --enable-videotoolbox --enable-audiotoolbox --enable-neon\n",
      "  libavutil      58.  2.100 / 58.  2.100\n",
      "  libavcodec     60.  3.100 / 60.  3.100\n",
      "  libavformat    60.  3.100 / 60.  3.100\n",
      "  libavdevice    60.  1.100 / 60.  1.100\n",
      "  libavfilter     9.  3.100 /  9.  3.100\n",
      "  libswscale      7.  1.100 /  7.  1.100\n",
      "  libswresample   4. 10.100 /  4. 10.100\n",
      "  libpostproc    57.  1.100 / 57.  1.100\n",
      "Input #0, mov,mp4,m4a,3gp,3g2,mj2, from './videos/cabin.mp4':\n",
      "  Metadata:\n",
      "    major_brand     : isom\n",
      "    minor_version   : 512\n",
      "    compatible_brands: isomiso2avc1mp41\n",
      "    encoder         : Lavf58.29.100\n",
      "  Duration: 00:00:04.00, start: 0.000000, bitrate: 5055 kb/s\n",
      "  Stream #0:0[0x1](und): Video: h264 (High) (avc1 / 0x31637661), yuv420p(progressive), 640x1024, 5051 kb/s, 24 fps, 24 tbr, 12288 tbn (default)\n",
      "    Metadata:\n",
      "      handler_name    : VideoHandler\n",
      "      vendor_id       : [0][0][0][0]\n",
      "Stream mapping:\n",
      "  Stream #0:0 -> #0:0 (h264 (native) -> rawvideo (native))\n",
      "Press [q] to stop, [?] for help\n",
      "[swscaler @ 0x130478000] [swscaler @ 0x128ef8000] No accelerated colorspace conversion found from yuv420p to bgr24.\n",
      "[swscaler @ 0x130478000] [swscaler @ 0x128f08000] No accelerated colorspace conversion found from yuv420p to bgr24.\n",
      "[swscaler @ 0x130478000] [swscaler @ 0x128f18000] No accelerated colorspace conversion found from yuv420p to bgr24.\n",
      "[swscaler @ 0x130478000] [swscaler @ 0x128f28000] No accelerated colorspace conversion found from yuv420p to bgr24.\n",
      "[swscaler @ 0x130478000] [swscaler @ 0x128f38000] No accelerated colorspace conversion found from yuv420p to bgr24.\n",
      "[swscaler @ 0x130478000] [swscaler @ 0x128f48000] No accelerated colorspace conversion found from yuv420p to bgr24.\n",
      "[swscaler @ 0x130478000] [swscaler @ 0x118498000] No accelerated colorspace conversion found from yuv420p to bgr24.\n",
      "[swscaler @ 0x130478000] [swscaler @ 0x1184a8000] No accelerated colorspace conversion found from yuv420p to bgr24.\n",
      "[swscaler @ 0x130478000] [swscaler @ 0x1184b8000] No accelerated colorspace conversion found from yuv420p to bgr24.\n",
      "Output #0, avi, to '/var/folders/7k/52l4j6s906q9s88m_c95kdkw0000gn/T/tmpezqm947m.avi':\n",
      "  Metadata:\n",
      "    major_brand     : isom\n",
      "    minor_version   : 512\n",
      "    compatible_brands: isomiso2avc1mp41\n",
      "    ISFT            : Lavf60.3.100\n",
      "  Stream #0:0(und): Video: rawvideo, bgr24(pc, gbr/unknown/unknown, progressive), 640x1024, q=2-31, 377487 kb/s, 24 fps, 24 tbn (default)\n",
      "    Metadata:\n",
      "      handler_name    : VideoHandler\n",
      "      vendor_id       : [0][0][0][0]\n",
      "      encoder         : Lavc60.3.100 rawvideo\n",
      "frame=   96 fps=0.0 q=-0.0 Lsize=  184328kB time=00:00:03.95 bitrate=381477.1kbits/s speed=7.52x    \n",
      "video:184320kB audio:0kB subtitle:0kB other streams:0kB global headers:0kB muxing overhead: 0.004233%\n"
     ]
    },
    {
     "name": "stdout",
     "output_type": "stream",
     "text": [
      "Component: 194 - 388\n",
      "Duration: 6.495298563869992\n"
     ]
    },
    {
     "name": "stderr",
     "output_type": "stream",
     "text": [
      "ffmpeg version 6.0 Copyright (c) 2000-2023 the FFmpeg developers\n",
      "  built with Apple clang version 14.0.3 (clang-1403.0.22.14.1)\n",
      "  configuration: --prefix=/opt/homebrew/Cellar/ffmpeg/6.0_1 --enable-shared --enable-pthreads --enable-version3 --cc=clang --host-cflags= --host-ldflags= --enable-ffplay --enable-gnutls --enable-gpl --enable-libaom --enable-libaribb24 --enable-libbluray --enable-libdav1d --enable-libmp3lame --enable-libopus --enable-librav1e --enable-librist --enable-librubberband --enable-libsnappy --enable-libsrt --enable-libsvtav1 --enable-libtesseract --enable-libtheora --enable-libvidstab --enable-libvmaf --enable-libvorbis --enable-libvpx --enable-libwebp --enable-libx264 --enable-libx265 --enable-libxml2 --enable-libxvid --enable-lzma --enable-libfontconfig --enable-libfreetype --enable-frei0r --enable-libass --enable-libopencore-amrnb --enable-libopencore-amrwb --enable-libopenjpeg --enable-libspeex --enable-libsoxr --enable-libzmq --enable-libzimg --disable-libjack --disable-indev=jack --enable-videotoolbox --enable-audiotoolbox --enable-neon\n",
      "  libavutil      58.  2.100 / 58.  2.100\n",
      "  libavcodec     60.  3.100 / 60.  3.100\n",
      "  libavformat    60.  3.100 / 60.  3.100\n",
      "  libavdevice    60.  1.100 / 60.  1.100\n",
      "  libavfilter     9.  3.100 /  9.  3.100\n",
      "  libswscale      7.  1.100 /  7.  1.100\n",
      "  libswresample   4. 10.100 /  4. 10.100\n",
      "  libpostproc    57.  1.100 / 57.  1.100\n",
      "Input #0, mov,mp4,m4a,3gp,3g2,mj2, from './videos/nature.mp4':\n",
      "  Metadata:\n",
      "    major_brand     : isom\n",
      "    minor_version   : 512\n",
      "    compatible_brands: isomiso2avc1mp41\n",
      "    encoder         : Lavf58.29.100\n",
      "  Duration: 00:00:04.00, start: 0.000000, bitrate: 14189 kb/s\n",
      "  Stream #0:0[0x1](und): Video: h264 (High) (avc1 / 0x31637661), yuv420p(progressive), 640x896, 14185 kb/s, 24 fps, 24 tbr, 12288 tbn (default)\n",
      "    Metadata:\n",
      "      handler_name    : VideoHandler\n",
      "      vendor_id       : [0][0][0][0]\n",
      "Stream mapping:\n",
      "  Stream #0:0 -> #0:0 (h264 (native) -> rawvideo (native))\n",
      "Press [q] to stop, [?] for help\n",
      "[swscaler @ 0x1200f8000] [swscaler @ 0x158008000] No accelerated colorspace conversion found from yuv420p to bgr24.\n",
      "[swscaler @ 0x1200f8000] [swscaler @ 0x158018000] No accelerated colorspace conversion found from yuv420p to bgr24.\n",
      "[swscaler @ 0x1200f8000] [swscaler @ 0x158028000] No accelerated colorspace conversion found from yuv420p to bgr24.\n",
      "[swscaler @ 0x1200f8000] [swscaler @ 0x158038000] No accelerated colorspace conversion found from yuv420p to bgr24.\n",
      "[swscaler @ 0x1200f8000] [swscaler @ 0x158048000] No accelerated colorspace conversion found from yuv420p to bgr24.\n",
      "[swscaler @ 0x1200f8000] [swscaler @ 0x1400f0000] No accelerated colorspace conversion found from yuv420p to bgr24.\n",
      "[swscaler @ 0x1200f8000] [swscaler @ 0x140100000] No accelerated colorspace conversion found from yuv420p to bgr24.\n",
      "[swscaler @ 0x1200f8000] [swscaler @ 0x120390000] No accelerated colorspace conversion found from yuv420p to bgr24.\n",
      "[swscaler @ 0x1200f8000] [swscaler @ 0x1203a0000] No accelerated colorspace conversion found from yuv420p to bgr24.\n",
      "Output #0, avi, to '/var/folders/7k/52l4j6s906q9s88m_c95kdkw0000gn/T/tmp43xnsxf0.avi':\n",
      "  Metadata:\n",
      "    major_brand     : isom\n",
      "    minor_version   : 512\n",
      "    compatible_brands: isomiso2avc1mp41\n",
      "    ISFT            : Lavf60.3.100\n",
      "  Stream #0:0(und): Video: rawvideo, bgr24(pc, gbr/unknown/unknown, progressive), 640x896, q=2-31, 330301 kb/s, 24 fps, 24 tbn (default)\n",
      "    Metadata:\n",
      "      handler_name    : VideoHandler\n",
      "      vendor_id       : [0][0][0][0]\n",
      "      encoder         : Lavc60.3.100 rawvideo\n",
      "frame=   96 fps= 68 q=-0.0 Lsize=  161288kB time=00:00:03.95 bitrate=333794.5kbits/s speed=2.82x    \n",
      "video:161280kB audio:0kB subtitle:0kB other streams:0kB global headers:0kB muxing overhead: 0.004838%\n"
     ]
    },
    {
     "name": "stdout",
     "output_type": "stream",
     "text": [
      "Component: 389 - 583\n",
      "Duration: 6.495298563869992\n"
     ]
    }
   ],
   "source": [
    "clouds = './videos/clouds.mp4'\n",
    "cabin = './videos/cabin.mp4'\n",
    "nature = './videos/nature.mp4'\n",
    "\n",
    "output_file = \"output/bible.mp4\"\n",
    "\n",
    "tts = TTSComponent(verse + \" \" + location, color=(200, 10, 0), height=1024, width=1024)\n",
    "third = tts.total_duration()/3\n",
    "mp4 = LoopingMP4(clouds, fps=30, start=0, duration=third, reverse_loop=True, speed_factor=1)\n",
    "mp4a = LoopingMP4(cabin, fps=30, start=third, duration=third, reverse_loop=True, speed_factor=0.5)\n",
    "mp4b = LoopingMP4(nature, fps=30, start=third*2, duration=third, reverse_loop=True, speed_factor=2)\n",
    "\n",
    "video_composition = VideoComposition(width=mp4.width, height=mp4.height, fps=mp4.fps)\n",
    "video_composition.add_component(mp4)\n",
    "video_composition.add_component(mp4a)\n",
    "video_composition.add_component(mp4b)\n",
    "\n",
    "video_composition.add_component(tts)\n",
    "\n",
    "video_composition.create_video(output_file)\n"
   ]
  }
 ],
 "metadata": {
  "kernelspec": {
   "display_name": "tiktok--IX8dTYm",
   "language": "python",
   "name": "python3"
  },
  "language_info": {
   "codemirror_mode": {
    "name": "ipython",
    "version": 3
   },
   "file_extension": ".py",
   "mimetype": "text/x-python",
   "name": "python",
   "nbconvert_exporter": "python",
   "pygments_lexer": "ipython3",
   "version": "3.11.5"
  },
  "orig_nbformat": 4
 },
 "nbformat": 4,
 "nbformat_minor": 2
}
